<svg xmlns="http://www.w3.org/2000/svg" width="20" height="20" viewBox="0 0 24 24" fill="currentColor">
  <path d="M12 .5C5.37.5 0 5.87 0 12.5c0 5.28 3.438 9.75 8.205 11.32.6.113.82-.26.82-.577v-2.234c-3.338.726-4.033-1.415-4.033-1.415-.546-1.387-1.333-1.756-1.333-1.756-1.09-.745.083-.73.083-.73 1.205.084 1.838 1.237 1.838 1.237 1.07 1.834 2.807 1.304 3.492.997.107-.775.418-1.304.762-1.604-2.665-.304-5.466-1.334-5.466-5.933 0-1.31.47-2.382 1.236-3.222-.124-.303-.535-1.523.117-3.176 0 0 1.008-.323 3.3 1.23a11.5 11.5 0 0 1 3.003-.404c1.02.005 2.046.138 3.003.404 2.29-1.553 3.296-1.23 3.296-1.23.653 1.653.243 2.873.12 3.176.77.84 1.234 1.912 1.234 3.222 0 4.61-2.805 5.625-5.476 5.922.43.37.823 1.096.823 2.21v3.277c0 .32.218.694.825.576C20.565 22.245 24 17.777 24 12.5 24 5.87 18.627.5 12 .5z"></path>
</svg>
